<?xml version="1.0" encoding="utf-8"?>
<!-- Generator: Adobe Illustrator 18.1.0, SVG Export Plug-In . SVG Version: 6.00 Build 0)  -->
<!DOCTYPE svg PUBLIC "-//W3C//DTD SVG 1.1//EN" "http://www.w3.org/Graphics/SVG/1.1/DTD/svg11.dtd">
<svg version="1.1" id="Layer_1" xmlns="http://www.w3.org/2000/svg" xmlns:xlink="http://www.w3.org/1999/xlink" x="0px" y="0px"
	 viewBox="462.3 723.3 70.4 70.4" enable-background="new 462.3 723.3 70.4 70.4" xml:space="preserve">
<g>
	<path fill="#DCFFC6" d="M54.6,953.8L54.6,953.8C54.6,953.8,52.8,953.8,54.6,953.8L54.6,953.8z"/>
	<path fill="none" stroke="#E2FFD2" stroke-width="0.8221" stroke-miterlimit="10" d="M54.6,953.8L54.6,953.8
		C54.6,953.8,52.8,953.8,54.6,953.8L54.6,953.8z"/>
	<path opacity="0.3" fill="#B0CC9F" enable-background="new    " d="M54.6,953.8C54.6,953.8,52.8,953.8,54.6,953.8L54.6,953.8
		L54.6,953.8L54.6,953.8z"/>
</g>
<g>
	<g>
		<g>
			<path fill="#DCFFC6" d="M499.3,757.2L499.3,757.2C499.3,757.2,499.2,757.2,499.3,757.2L499.3,757.2z"/>
			<path fill="none" stroke="#E2FFD2" stroke-width="5.777980e-02" stroke-miterlimit="10" d="M499.3,757.2L499.3,757.2
				C499.3,757.2,499.2,757.2,499.3,757.2L499.3,757.2z"/>
			<path opacity="0.3" fill="#B0CC9F" enable-background="new    " d="M499.3,757.2C499.3,757.2,499.2,757.2,499.3,757.2
				L499.3,757.2L499.3,757.2L499.3,757.2z"/>
		</g>
		<g>
			<path fill="#DCFFC6" d="M468.7,758.2v0.5c0,15.9,12.9,28.8,28.8,28.8l0,0c15.9,0,28.8-12.9,28.8-28.8v-0.5
				c0-15.9-12.9-28.8-28.8-28.8l0,0C481.6,729.5,468.7,742.4,468.7,758.2z M487.6,775.6H480v-22.8h7.6V775.6z M483.8,749.6
				L483.8,749.6c-2.6,0-4.2-1.7-4.2-4s1.7-4,4.3-4s4.2,1.7,4.2,4C488.1,747.8,486.4,749.6,483.8,749.6z M515.1,775.6h-7.6v-12.3
				c0-3.1-1.1-5.2-3.8-5.2c-2.1,0-3.3,1.4-3.8,2.7c-0.2,0.5-0.2,1.1-0.2,1.9v12.8H492c0,0,0.1-20.7,0-22.9h7.6v3.2
				c1-1.6,2.9-3.7,6.8-3.7c5,0,8.8,3.2,8.8,10.3L515.1,775.6L515.1,775.6z"/>
			<g>
				<path fill="none" stroke="#E2FFD2" stroke-width="5.777980e-02" stroke-miterlimit="10" d="M468.7,758.2v0.5
					c0,15.9,12.9,28.8,28.8,28.8l0,0c15.9,0,28.8-12.9,28.8-28.8v-0.5c0-15.9-12.9-28.8-28.8-28.8l0,0
					C481.6,729.5,468.7,742.4,468.7,758.2z M487.6,775.6H480v-22.8h7.6V775.6z M483.8,749.6L483.8,749.6c-2.6,0-4.2-1.7-4.2-4
					s1.7-4,4.3-4s4.2,1.7,4.2,4C488.1,747.8,486.4,749.6,483.8,749.6z M515.1,775.6h-7.6v-12.3c0-3.1-1.1-5.2-3.8-5.2
					c-2.1,0-3.3,1.4-3.8,2.7c-0.2,0.5-0.2,1.1-0.2,1.9v12.8H492c0,0,0.1-20.7,0-22.9h7.6v3.2c1-1.6,2.9-3.7,6.8-3.7
					c5,0,8.8,3.2,8.8,10.3L515.1,775.6L515.1,775.6z"/>
			</g>
			<g opacity="0.3">
				<path fill="#B0CC9F" d="M497.5,730.5c15.4,0,27.8,12.5,27.8,27.8v0.5c0,15.4-12.5,27.8-27.8,27.8s-27.8-12.5-27.8-27.8v-0.5
					C469.7,743,482.2,730.5,497.5,730.5 M483.7,750.7L483.7,750.7c3.1,0,5.3-2.1,5.3-5c-0.1-3-2.2-5-5.3-5s-5.3,2.1-5.3,5
					C478.4,748.6,480.7,750.7,483.7,750.7 M500.5,753.2v-0.4v-1h-1h-7.6h-1.1v1.1c0.1,2.1,0,22.7,0,22.8v1h1h7.6h1v-1v-12.8
					c0-0.7,0-1.2,0.1-1.5c0.2-0.6,1.1-2.1,3-2.1c0.7,0,2.9,0,2.9,4.2v12.3v1h1h7.6h1v-1v-13.1c0-6.9-3.7-11.3-9.8-11.3
					C503.6,751.2,501.7,752,500.5,753.2 M479,776.6h1h7.6h1v-1v-22.8v-1h-1H480h-1v1v22.9V776.6 M497.5,729.5L497.5,729.5
					c-15.9,0-28.8,12.9-28.8,28.8v0.5c0,15.9,12.9,28.8,28.8,28.8l0,0c15.9,0,28.8-12.9,28.8-28.8v-0.5
					C526.4,742.4,513.5,729.5,497.5,729.5L497.5,729.5z M483.7,749.6c-2.6,0-4.2-1.7-4.2-4s1.7-4,4.3-4c2.6,0,4.2,1.7,4.2,4
					C488.1,747.8,486.4,749.6,483.7,749.6L483.7,749.6L483.7,749.6z M499.5,756c1-1.6,2.9-3.7,6.8-3.7c5,0,8.8,3.2,8.8,10.3v13.1
					l0,0h-7.6v-12.3c0-3.1-1.1-5.2-3.8-5.2c-2.1,0-3.3,1.4-3.8,2.7c-0.2,0.5-0.2,1.1-0.2,1.9v12.8H492c0,0,0.1-20.7,0-22.9h7.6v3.3
					H499.5z M480,775.6v-22.8h7.6v22.9H480V775.6z"/>
			</g>
		</g>
		<g>
			<path fill="none" stroke="#E2FFD2" stroke-width="1.1839" stroke-miterlimit="10" d="M497.5,793.1c-19.1,0-34.6-15.5-34.6-34.6
				c0-19.1,15.5-34.6,34.6-34.6c19.1,0,34.6,15.5,34.6,34.6C532.1,777.6,516.6,793.1,497.5,793.1z"/>
		</g>
	</g>
</g>
</svg>
