<?xml version="1.0" encoding="utf-8"?>
<!-- Generator: Adobe Illustrator 18.1.0, SVG Export Plug-In . SVG Version: 6.00 Build 0)  -->
<!DOCTYPE svg PUBLIC "-//W3C//DTD SVG 1.1//EN" "http://www.w3.org/Graphics/SVG/1.1/DTD/svg11.dtd">
<svg version="1.1" id="Layer_1" xmlns="http://www.w3.org/2000/svg" xmlns:xlink="http://www.w3.org/1999/xlink" x="0px" y="0px"
	 viewBox="278 381.6 44.3 78.8" enable-background="new 278 381.6 44.3 78.8" xml:space="preserve">
<g>
	<path fill="#FFFFFF" d="M304.3,411.4c-0.1,0-0.3-0.1-0.4-0.1l-10.6-10.6c-0.2-0.2-0.2-0.6,0-0.8c0.2-0.2,0.6-0.2,0.8,0l10.6,10.6
		c0.2,0.2,0.2,0.6,0,0.8C304.7,411.4,304.5,411.4,304.3,411.4z"/>
	<path fill="#FFFFFF" d="M306.5,407.8c-0.1,0-0.3-0.1-0.4-0.1L295.4,397c-0.2-0.2-0.2-0.6,0-0.8c0.2-0.2,0.6-0.2,0.8,0l10.6,10.6
		c0.2,0.2,0.2,0.6,0,0.8C306.7,407.8,306.6,407.8,306.5,407.8z"/>
	<path fill="#FFFFFF" d="M300.1,381.6c-12.2,0-22.1,10-22.1,22.1c0,11,8.1,20.2,18.5,21.8c0,0,0,0,0,0.1v34.1c0,0.4,0.3,0.6,0.6,0.6
		h6.1c0.4,0,0.6-0.3,0.6-0.6v-34.2c10.4-1.8,18.4-10.9,18.4-21.8C322.3,391.5,312.3,381.6,300.1,381.6z M302.6,459.1h-4.7v-25.5h4.7
		V459.1z M300.1,424.6c-11.5,0-20.9-9.3-20.9-20.9c0-11.5,9.3-20.9,20.9-20.9c11.5,0,20.9,9.3,20.9,20.9
		C320.9,415.2,311.6,424.6,300.1,424.6z"/>
	<path fill="#FFFFFF" d="M300.1,386.3c-9.6,0-17.4,7.8-17.4,17.4s7.8,17.4,17.4,17.4s17.4-7.8,17.4-17.4
		C317.5,394.1,309.7,386.3,300.1,386.3z M300.1,419.8c-8.9,0-16.1-7.2-16.1-16.1s7.2-16.1,16.1-16.1s16.1,7.2,16.1,16.1
		C316.2,412.6,309,419.8,300.1,419.8z"/>
</g>
</svg>
