<?xml version="1.0" encoding="utf-8"?>
<!-- Generator: Adobe Illustrator 18.1.0, SVG Export Plug-In . SVG Version: 6.00 Build 0)  -->
<!DOCTYPE svg PUBLIC "-//W3C//DTD SVG 1.1//EN" "http://www.w3.org/Graphics/SVG/1.1/DTD/svg11.dtd">
<svg version="1.1" id="Layer_1" xmlns="http://www.w3.org/2000/svg" xmlns:xlink="http://www.w3.org/1999/xlink" x="0px" y="0px"
	 viewBox="541.7 389 53.6 63.8" enable-background="new 541.7 389 53.6 63.8" xml:space="preserve">
<g>
	<path fill="#FFFFFF" d="M560.7,394.5c0,0.5-0.4,0.9-0.9,0.9c-0.3,0-0.5-0.1-0.6-0.3l0,0c-0.1-0.1-0.2-0.4-0.2-0.6
		c0-0.4,0.3-0.8,0.7-0.8c0.1,0,0.1,0,0.2,0C560.3,393.7,560.7,394.1,560.7,394.5z"/>
	<path fill="#FFFFFF" d="M572.1,410.4c0.2-0.1,0.5-0.2,0.7-0.1c0.1,0.1,0.1,0.1,0.2,0.1l3.9,4.5c0.1,0.2,0.2,0.4,0.1,0.6l0,0
		c-0.1,0.4-0.4,0.6-0.6,0.6l-3.1-0.2c-0.4,0-0.6-0.4-0.6-0.7c0-0.4,0.4-0.6,0.7-0.6l1.7,0.1l-3-3.4
		C571.8,411,571.8,410.7,572.1,410.4z"/>
	<path fill="#FFFFFF" d="M576.4,401.2c0.2-0.1,0.5-0.2,0.7-0.1c0.1,0.1,0.1,0.1,0.2,0.1l3.9,4.5c0.1,0.1,0.2,0.4,0.1,0.6
		c0,0,0,0,0,0.1l0,0c-0.1,0.4-0.4,0.6-0.6,0.6l-3.1-0.2c-0.4,0-0.6-0.4-0.6-0.7c0-0.4,0.4-0.6,0.7-0.6l1.7,0.1l-3-3.5
		C576.2,401.8,576.2,401.4,576.4,401.2z"/>
	<path fill="#FFFFFF" d="M574.3,405.8c0.2-0.1,0.5-0.2,0.7-0.1c0.1,0.1,0.1,0.1,0.2,0.1l3.9,4.5c0.1,0.1,0.2,0.4,0.1,0.6
		c0,0,0,0,0,0.1l0,0c-0.1,0.4-0.4,0.6-0.6,0.6l-3.1-0.2c-0.4,0-0.6-0.4-0.6-0.7c0.1-0.4,0.4-0.6,0.7-0.6l1.7,0.1l-3-3.4
		C574,406.3,574,406,574.3,405.8z"/>
	<path fill="#FFFFFF" d="M584,396.2c0.2,0.1,0.4,0.4,0.4,0.6c0,0.4-0.3,0.6-0.6,0.6l-1.7-0.1c-0.4,0-0.6-0.3-0.6-0.6
		c0-0.4,0.3-0.6,0.6-0.6l1.7,0.1C583.8,396.2,583.9,396.2,584,396.2z"/>
	<path fill="#FFFFFF" d="M578.6,396.6c0.2-0.1,0.5-0.2,0.7-0.1c0.1,0.1,0.1,0.1,0.2,0.1l3.9,4.5c0.1,0.1,0.2,0.4,0.1,0.6l0,0l0,0
		c-0.1,0.4-0.4,0.6-0.6,0.6l-3.1-0.2c-0.4,0-0.6-0.4-0.6-0.7v-0.1l0,0l0,0l0,0v-0.1v-0.1c0.1-0.2,0.4-0.4,0.6-0.4l1.6,0.1l-2.9-3.3
		C578.3,397.2,578.4,396.8,578.6,396.6z"/>
	<path fill="#FFFFFF" d="M579.2,401.2L579.2,401.2L579.2,401.2L579.2,401.2L579.2,401.2z"/>
	<path fill="#FFFFFF" d="M579.3,401.1L579.3,401.1L579.3,401.1L579.3,401.1z"/>
	<path fill="#FFFFFF" d="M579.3,401.1L579.3,401.1L579.3,401.1L579.3,401.1L579.3,401.1L579.3,401.1z"/>
	<path fill="#FFFFFF" d="M595.3,437.5c-0.2-1-1.8-1.5-3.1-1.5h-0.2c-1.3,0-2.5-0.9-3.5-2.8c-0.1-0.4-0.6-0.4-0.9-0.3l-6.2,3.2
		c-2.1,1.1-2.8,2.5-3.5,3.7c-0.6,1.1-1.1,2.1-2.5,2.8c-0.3,0.1-0.6,0.2-0.9,0.2c-1.2,0-2.1-1.1-2.3-2.2c-0.1-0.6-0.1-1.6,1.1-2.1
		c0.3-0.1,0.4-0.4,0.4-0.6c0-0.3-0.1-0.5-0.4-0.6c-0.1,0-1.3-0.6-2.7-0.6c-0.2,0-0.4,0-0.6,0.1v-4.3c0-0.1-0.1-0.3-0.1-0.4
		c-0.4-0.6-1.1-1.5-1.7-2.5l2.1-4.5c-0.9-0.4-1.3-1.4-1.1-2.4l1.3-2.8l3.7,0.6c0.4,0.1,0.7-0.1,0.8-0.5l0,0l0,0
		c0.1-0.2,0-0.4-0.1-0.6L571,415c-0.1-0.1-0.1-0.1-0.2-0.1c-0.2-0.1-0.5-0.1-0.7,0.1c-0.3,0.2-0.3,0.6-0.1,0.9l2.8,3.3l-2.5-0.4
		h-0.1c-0.1,0-0.1,0-0.3,0.1l-0.1,0.1c-0.1,0-0.1,0.1-0.1,0.1c0,0.1-0.1,0.1-0.1,0.1s-0.1,0.1-0.1,0.1l-1.3,2.8v0.1l-1.9,4.1
		c-0.5-1.1-0.8-2.1-0.8-2.8v-25.2c0-4.1,1.6-5,1.6-5c0.1-0.1,0.3-0.2,0.4-0.4c0.1-0.2,0-0.4-0.1-0.6c-1.5-2.3-4-3.1-5.9-3.1
		c-0.8,0-1.6,0.1-2.3,0.4c-0.4-0.2-0.9-0.4-1.6-0.4c-1,0-2,0.4-3.1,1.1l-7.6,5.3c-4.5,3.1-5.2,8.6-5.2,8.8c0,0.2,0.1,0.4,0.2,0.6
		c0.1,0.1,0.3,0.2,0.5,0.2h0.1c0.1,0,1.8-0.3,4.1-1.9l7.3-5.1c0.8-0.6,1.6-1.4,2.1-2.3l0.7,0.4v53.3c0,0.1,0.4,0.6,0.4,0.6
		c0.1,0.1,2.5,2.7,6.3,2.7c1.1,0,2.1-0.2,3.1-0.6c0,0.1,0.1,0.2,0.1,0.4c0.1,0.1,0.3,0.2,0.5,0.2c0.1,0,0.2,0,0.3-0.1l27.2-13.8
		C595.3,438.4,595.3,437.7,595.3,437.5z M565.8,426.8L565.8,426.8L565.8,426.8L565.8,426.8L565.8,426.8z M556.6,392.5v2.4l-1.1-0.8
		c-0.2-0.1-0.6-0.1-0.8,0s-0.4,0.4-0.2,0.7c0.1,0.3,0.3,1-1.5,2.2l-7.2,5.1c-1.1,0.7-2.1,1.1-2.7,1.3c0.4-1.6,1.6-4.9,4.5-6.9
		l7.6-5.3c0.8-0.6,1.6-0.9,2.3-0.9c0.1,0,0.1,0,0.1,0C556.9,390.9,556.6,391.6,556.6,392.5z M563.1,451.5c-2.7,0-4.6-1.6-5.2-2.1
		v-57c0-0.6,0.4-1.1,0.8-1.5c0.1-0.1,0.4-0.2,0.6-0.4c0.2-0.1,0.4-0.1,0.7-0.2c0.4-0.1,0.8-0.1,1.1-0.1c1.4,0,3.4,0.6,4.6,2.1
		c-0.7,0.7-1.7,2.3-1.7,5.7v25.2c0,1.1,0.6,2.8,1.5,4.4c0.6,1.3,1.4,2.5,2.1,3.5c0.5,0.8,0.9,1.4,1.1,1.7v4.4
		c-0.5,0.3-1,0.8-1.4,1.3c-0.6,1-1,1.9-1.3,2.7c-0.4,1.3-0.8,2.1-2,2.7l-2.3,1.3c-1.4,0.7-2,2.5-1.3,3.8c0.2,0.5,0.6,0.8,1.1,1.1
		c0.4,0.3,1,0.4,1.5,0.4c0.4,0,0.9-0.1,1.3-0.3c0.8-0.4,1.6-0.3,1.8,0.2c0.1,0.1,0.1,0.1,0.1,0.1
		C565.3,451.3,564.2,451.5,563.1,451.5z M594,437.8l-26.3,13.2c0-0.1,0-0.2,0-0.3c-0.1-0.2-0.1-0.4-0.2-0.6
		c-0.1-0.1-0.1-0.1-0.1-0.3c-0.4-0.6-1.1-1.1-2-1.1c-0.5,0-1.1,0.1-1.6,0.4c-0.8,0.4-1.7,0.1-2.1-0.7c-0.4-0.8-0.1-1.7,0.7-2.1
		l2.3-1.3c1.7-0.8,2.1-2.1,2.6-3.4c0.3-0.8,0.6-1.6,1.1-2.5c0-0.1,0.1-0.1,0.1-0.2c0.2-0.3,0.4-0.4,0.7-0.6c0.2-0.1,0.4-0.2,0.6-0.3
		c0.1-0.1,0.4-0.1,0.6-0.1c0.3,0,0.6,0.1,0.8,0.1c-0.6,0.7-0.9,1.6-0.7,2.7c0.3,1.6,1.7,3.3,3.6,3.3c0.5,0,1.1-0.1,1.6-0.4
		c1.8-0.9,2.5-2.2,3.2-3.5c0.6-1.2,1.3-2.3,3-3.2l5.7-2.9c1.1,1.9,2.5,2.9,4.3,2.9h0.2c0.8,0,1.5,0.2,1.7,0.4
		C594.2,437.7,594.1,437.7,594,437.8z"/>
	<path fill="#FFFFFF" d="M566,431c0,0.1,0,0.2-0.1,0.4c-0.1,0.4-0.4,0.6-0.8,0.6c-0.5,0-0.9-0.4-0.9-0.9c0-0.1,0.1-0.3,0.1-0.4
		c0.1-0.3,0.4-0.5,0.8-0.5C565.6,430.1,566,430.5,566,431z"/>
</g>
</svg>
