<?xml version="1.0" encoding="utf-8"?>
<!-- Generator: Adobe Illustrator 18.1.0, SVG Export Plug-In . SVG Version: 6.00 Build 0)  -->
<!DOCTYPE svg PUBLIC "-//W3C//DTD SVG 1.1//EN" "http://www.w3.org/Graphics/SVG/1.1/DTD/svg11.dtd">
<svg version="1.1" id="Layer_1" xmlns="http://www.w3.org/2000/svg" xmlns:xlink="http://www.w3.org/1999/xlink" x="0px" y="0px"
	 viewBox="-777.1 466.2 69 69" enable-background="new -777.1 466.2 69 69" xml:space="preserve">
<g>
	<path fill="none" stroke="#E2FFD2" stroke-width="1.1839" stroke-miterlimit="10" d="M-742.7,534.5c-18.7,0-33.9-15.2-33.9-33.9
		c0-18.7,15.2-33.9,33.9-33.9c18.7,0,33.9,15.2,33.9,33.9C-708.8,519.3-724,534.5-742.7,534.5z"/>
	<g>
		<path fill="#DCFFC6" d="M-742.7,476c-13.6,0-24.6,11-24.6,24.6c0,13.6,11,24.6,24.6,24.6c13.6,0,24.6-11,24.6-24.6
			C-718,487.1-729.1,476-742.7,476z M-730.2,495.7c0,0.3,0,0.5,0,0.8c0,8.2-6.2,17.7-17.7,17.7c-3.5,0-6.8-1-9.5-2.8
			c0.5,0.1,1,0.1,1.5,0.1c2.9,0,5.6-1,7.7-2.7c-2.7-0.1-5-1.8-5.8-4.3c0.4,0.1,0.8,0.1,1.2,0.1c0.6,0,1.1-0.1,1.6-0.2
			c-2.8-0.6-5-3.1-5-6.1c0,0,0-0.1,0-0.1c0.8,0.5,1.8,0.7,2.8,0.8c-1.7-1.1-2.8-3-2.8-5.2c0-1.1,0.3-2.2,0.8-3.1
			c3.1,3.8,7.6,6.2,12.8,6.5c-0.1-0.5-0.2-0.9-0.2-1.4c0-3.4,2.8-6.2,6.2-6.2c1.8,0,3.4,0.8,4.5,2c1.4-0.3,2.7-0.8,3.9-1.5
			c-0.5,1.5-1.4,2.7-2.7,3.4c1.3-0.1,2.5-0.5,3.6-1C-728,493.7-729,494.8-730.2,495.7z"/>
		<g>
			<path fill="none" stroke="#E2FFD2" stroke-miterlimit="10" d="M-742.7,476c-13.6,0-24.6,11-24.6,24.6c0,13.6,11,24.6,24.6,24.6
				c13.6,0,24.6-11,24.6-24.6C-718,487.1-729.1,476-742.7,476z M-730.2,495.7c0,0.3,0,0.5,0,0.8c0,8.2-6.2,17.7-17.7,17.7
				c-3.5,0-6.8-1-9.5-2.8c0.5,0.1,1,0.1,1.5,0.1c2.9,0,5.6-1,7.7-2.7c-2.7-0.1-5-1.8-5.8-4.3c0.4,0.1,0.8,0.1,1.2,0.1
				c0.6,0,1.1-0.1,1.6-0.2c-2.8-0.6-5-3.1-5-6.1c0,0,0-0.1,0-0.1c0.8,0.5,1.8,0.7,2.8,0.8c-1.7-1.1-2.8-3-2.8-5.2
				c0-1.1,0.3-2.2,0.8-3.1c3.1,3.8,7.6,6.2,12.8,6.5c-0.1-0.5-0.2-0.9-0.2-1.4c0-3.4,2.8-6.2,6.2-6.2c1.8,0,3.4,0.8,4.5,2
				c1.4-0.3,2.7-0.8,3.9-1.5c-0.5,1.5-1.4,2.7-2.7,3.4c1.3-0.1,2.5-0.5,3.6-1C-728,493.7-729,494.8-730.2,495.7z"/>
		</g>
		<g opacity="0.3">
			<path fill="#B0CC9F" d="M-742.7,477c13,0,23.6,10.6,23.6,23.6c0,13-10.6,23.6-23.6,23.6c-13,0-23.6-10.6-23.6-23.6
				C-766.3,487.6-755.7,477-742.7,477 M-731.6,490.4c-1.3-1.2-3.1-1.9-4.8-1.9c-4,0-7.2,3.2-7.2,7.2c0,0.1,0,0.2,0,0.3
				c-4.2-0.5-8.1-2.7-10.9-6l-0.9-1.1l-0.7,1.2c-0.6,1.1-1,2.3-1,3.6c0,1.1,0.2,2.2,0.7,3.1l-0.7-0.4l-0.1,1.6l0,0.1
				c0,1.9,0.7,3.6,2,4.9l-0.3,0l0.5,1.6c0.7,2.1,2.2,3.7,4.1,4.5c-1.6,0.8-3.3,1.2-5.1,1.2c-0.5,0-0.9,0-1.4-0.1l-4.3-0.5l3.7,2.3
				c3,1.9,6.5,2.9,10.1,2.9c11.7,0,18.7-9.5,18.7-18.7c0-0.1,0-0.2,0-0.3c1.1-0.9,2.1-1.9,2.9-3.1l1.9-2.9l-3.1,1.4c0,0,0,0,0,0
				c0.2-0.4,0.4-0.8,0.5-1.2l0.8-2.5l-2.3,1.3C-729.5,489.7-730.5,490.2-731.6,490.4 M-742.7,476c-13.6,0-24.6,11-24.6,24.6
				c0,13.6,11,24.6,24.6,24.6c13.6,0,24.6-11,24.6-24.6C-718,487.1-729.1,476-742.7,476L-742.7,476z M-742.5,497.2
				c-0.1-0.5-0.2-0.9-0.2-1.4c0-3.4,2.8-6.2,6.2-6.2c1.8,0,3.4,0.8,4.5,2c1.4-0.3,2.7-0.8,3.9-1.5c-0.5,1.5-1.4,2.7-2.7,3.4
				c1.3-0.2,2.5-0.5,3.6-1c-0.8,1.2-1.9,2.3-3.1,3.2c0,0.3,0,0.5,0,0.8c0,8.2-6.2,17.7-17.7,17.7c-3.5,0-6.8-1-9.5-2.8
				c0.5,0.1,1,0.1,1.5,0.1c2.9,0,5.6-1,7.7-2.7c-2.7-0.1-5-1.8-5.8-4.3c0.4,0.1,0.8,0.1,1.2,0.1c0.6,0,1.1-0.1,1.6-0.2
				c-2.8-0.6-5-3.1-5-6.1c0,0,0-0.1,0-0.1c0.8,0.5,1.8,0.7,2.8,0.8c-1.7-1.1-2.8-3-2.8-5.2c0-1.1,0.3-2.2,0.8-3.1
				C-752.2,494.5-747.7,496.9-742.5,497.2L-742.5,497.2z"/>
		</g>
	</g>
</g>
</svg>
