<?xml version="1.0" encoding="utf-8"?>
<!-- Generator: Adobe Illustrator 18.1.0, SVG Export Plug-In . SVG Version: 6.00 Build 0)  -->
<!DOCTYPE svg PUBLIC "-//W3C//DTD SVG 1.1//EN" "http://www.w3.org/Graphics/SVG/1.1/DTD/svg11.dtd">
<svg version="1.1" id="Layer_1" xmlns="http://www.w3.org/2000/svg" xmlns:xlink="http://www.w3.org/1999/xlink" x="0px" y="0px"
	 viewBox="0 381.3 63.4 79.4" enable-background="new 0 381.3 63.4 79.4" xml:space="preserve">
<g>
	<path fill="#FFFFFF" d="M62.7,384.8h-2.5v-2.9c0-0.4-0.3-0.6-0.6-0.6H3c-0.4,0-0.6,0.3-0.6,0.6v7H0.6c-0.4,0-0.6,0.3-0.6,0.6
		c0,0.4,0.3,0.6,0.6,0.6h1.8v4.8H0.6c-0.4,0-0.6,0.3-0.6,0.6s0.3,0.6,0.6,0.6h1.8v4.8H0.6c-0.4,0-0.6,0.3-0.6,0.6
		c0,0.4,0.3,0.6,0.6,0.6h1.8v4.8H0.6c-0.4,0-0.6,0.3-0.6,0.6c0,0.4,0.3,0.6,0.6,0.6h1.8v4.8H0.6c-0.4,0-0.6,0.3-0.6,0.6
		c0,0.4,0.3,0.6,0.6,0.6h1.8v4.8H0.6c-0.4,0-0.6,0.3-0.6,0.6c0,0.4,0.3,0.6,0.6,0.6h1.8v4.8H0.6c-0.4,0-0.6,0.3-0.6,0.6
		s0.3,0.6,0.6,0.6h1.8v4.8H0.6c-0.4,0-0.6,0.3-0.6,0.6c0,0.4,0.3,0.6,0.6,0.6h1.8v4.8H0.6c-0.4,0-0.6,0.3-0.6,0.6
		c0,0.4,0.3,0.6,0.6,0.6h1.8v4.8H0.6c-0.4,0-0.6,0.3-0.6,0.6c0,0.4,0.3,0.6,0.6,0.6h1.8v4.8H0.6c-0.4,0-0.6,0.3-0.6,0.6
		c0,0.4,0.3,0.6,0.6,0.6h1.8v5.9c0,0.4,0.3,0.6,0.6,0.6h1.9v2.4c0,0.4,0.3,0.6,0.6,0.6h57.1c0.4,0,0.6-0.3,0.6-0.6v-74.5
		C63.4,385.1,63.1,384.8,62.7,384.8z M3.6,456.8v-5.4h1.1C5,451.8,5.4,452,6,452c0.8,0,1.5-0.7,1.5-1.5c0-0.8-0.7-1.5-1.5-1.5
		c-0.6,0-1.2,0.4-1.4,1h-1v-4.8h1.1C5,445.7,5.4,446,6,446c0.8,0,1.5-0.7,1.5-1.5S6.8,443,6,443c-0.6,0-1.2,0.4-1.3,1h-1v-4.9h1.1
		c0.3,0.4,0.7,0.7,1.3,0.7c0.8,0,1.5-0.6,1.5-1.5c0-0.8-0.7-1.5-1.5-1.5c-0.6,0-1.2,0.4-1.3,0.9h-1V433h1.1c0.3,0.4,0.7,0.7,1.3,0.7
		c0.8,0,1.5-0.6,1.5-1.5c0-0.8-0.7-1.5-1.5-1.5c-0.6,0-1.1,0.4-1.3,0.9h-1v-4.8h1.1c0.3,0.4,0.8,0.7,1.3,0.7c0.8,0,1.5-0.6,1.5-1.5
		c0-0.8-0.7-1.5-1.5-1.5c-0.6,0-1.1,0.4-1.3,0.9h-1v-4.8h1.1c0.3,0.4,0.8,0.8,1.3,0.8c0.8,0,1.5-0.7,1.5-1.5c0-0.8-0.7-1.5-1.5-1.5
		c-0.6,0-1.1,0.4-1.3,0.9h-1v-4.8h1.1c0.3,0.4,0.8,0.8,1.3,0.8c0.8,0,1.5-0.7,1.5-1.5s-0.7-1.5-1.5-1.5c-0.6,0-1.1,0.4-1.3,0.9h-1
		v-4.8h1.1c0.3,0.4,0.8,0.8,1.3,0.8c0.8,0,1.5-0.7,1.5-1.5c0-0.8-0.7-1.5-1.5-1.5c-0.6,0-1.1,0.4-1.3,0.9h-1v-4.8h1.1
		c0.3,0.4,0.8,0.8,1.3,0.8c0.8,0,1.5-0.6,1.5-1.5s-0.7-1.5-1.5-1.5c-0.6,0-1.1,0.4-1.3,0.9H3.8v-4.8h1.1c0.3,0.5,0.8,0.8,1.3,0.8
		c0.8,0,1.5-0.7,1.5-1.5c0-0.8-0.7-1.5-1.5-1.5c-0.6,0-1.1,0.4-1.3,0.9H3.8v-4.8h1.1c0.3,0.4,0.8,0.8,1.3,0.8c0.8,0,1.5-0.7,1.5-1.5
		c0-0.8-0.7-1.5-1.5-1.5c-0.6,0-1.1,0.4-1.3,0.9H3.8v-6.4H59v74.2H3.6z M6.2,459.1v-1.1h53.2c0.4,0,0.6-0.3,0.6-0.6v-71.3h1.9v73
		H6.2z"/>
	<path fill="#FFFFFF" d="M38.3,447.4l-0.6-0.2c-2.5-0.7-4.3-1.6-5.5-2.7c2.4-1.1,4.5-3,5.7-5.6c2.5-5.4,0.4-11.9-4.8-14.8l1.4-6.1
		l3.8-4.9c5.5,2.1,11.8-0.4,14.4-5.8c1.2-2.6,1.4-5.4,0.6-8c1.6,0.2,3.5,1,5.6,2.5l0.5,0.4c0.2,0.2,0.5,0.1,0.7-0.1
		c0.2-0.2,0.1-0.6-0.1-0.7l-0.5-0.4c-2.5-1.7-4.6-2.6-6.5-2.7c-1-2.6-3-4.9-5.8-6.2c-5.7-2.7-12.5-0.2-15.2,5.5
		c-2.2,4.7-0.9,10.3,3,13.5c-2.7-0.1-5.4,1.4-6.6,4.1c-1.2,2.6-0.7,5.6,1.1,7.7c-5-0.8-10.1,1.7-12.3,6.4
		c-2.7,5.7-0.2,12.5,5.5,15.2c2.8,1.3,5.8,1.4,8.5,0.5c0.8,0.8,1.8,1.5,3.1,2.1c0.9,0.4,2,0.8,3.2,1.1l0.6,0.2
		c0.3,0.1,0.6-0.1,0.6-0.4C38.7,447.8,38.5,447.5,38.3,447.4z M32.2,423.7L32.2,423.7C32.1,423.7,32.1,423.7,32.2,423.7
		c-0.6-0.3-1-0.5-1.4-0.8l2.2-2.9L32.2,423.7z M35,415.7l0.8-3.5c0.5,0.1,0.9,0.3,1.4,0.5l0,0c0,0,0,0,0,0L35,415.7z M32.8,398.1
		c2.4-5.2,8.7-7.5,13.9-5.1c5.2,2.4,7.5,8.7,5.1,13.9c-2.4,5.2-8.7,7.5-13.9,5.1C32.6,409.5,30.4,403.2,32.8,398.1z M29.1,415.6
		c1-2.2,3.3-3.5,5.6-3.5l-1.3,5.5l-3.4,4.5C28.6,420.4,28.1,417.9,29.1,415.6z M23,443.6c-5.2-2.4-7.5-8.7-5.1-13.9
		c2.4-5.2,8.7-7.5,13.9-5.1c0.1,0,0.2,0.1,0.3,0.2c0,0,0,0,0.1,0c4.9,2.6,7,8.6,4.6,13.6C34.5,443.7,28.3,446,23,443.6z"/>
	<path fill="#FFFFFF" d="M32.2,423.7L32.2,423.7L32.2,423.7L32.2,423.7z"/>
	<path fill="#FFFFFF" d="M22.9,434.8c-0.1,0-0.2-0.1-0.2-0.2c-0.1-0.2,0.1-0.5,0.3-0.6l8.5-3.1c0.2-0.1,0.5,0.1,0.6,0.3
		c0.1,0.2-0.1,0.5-0.3,0.6l-8.5,3.1C23.1,434.9,23,434.9,22.9,434.8z"/>
	<path fill="#FFFFFF" d="M23.2,437.3c-0.1,0-0.2-0.1-0.2-0.2c-0.1-0.2,0.1-0.5,0.3-0.6l8.5-3.1c0.2-0.1,0.5,0.1,0.6,0.3
		c0.1,0.2-0.1,0.5-0.3,0.6l-8.5,3.1C23.4,437.4,23.3,437.4,23.2,437.3z"/>
	<path fill="#FFFFFF" d="M38.2,405.4c-0.1,0-0.2-0.1-0.2-0.2c-0.1-0.2,0.1-0.5,0.3-0.6l8.5-3.1c0.2-0.1,0.5,0.1,0.6,0.3
		c0.1,0.2-0.1,0.5-0.3,0.6l-8.5,3.1C38.4,405.4,38.3,405.4,38.2,405.4z"/>
	<path fill="#FFFFFF" d="M38.5,407.9c-0.1,0-0.2-0.1-0.2-0.2c-0.1-0.2,0.1-0.5,0.3-0.6L47,404c0.2-0.1,0.5,0.1,0.6,0.3
		c0.1,0.2-0.1,0.5-0.3,0.6l-8.5,3.1C38.7,407.9,38.6,407.9,38.5,407.9z"/>
</g>
</svg>
