<?xml version="1.0" encoding="utf-8"?>
<!-- Generator: Adobe Illustrator 18.1.0, SVG Export Plug-In . SVG Version: 6.00 Build 0)  -->
<!DOCTYPE svg PUBLIC "-//W3C//DTD SVG 1.1//EN" "http://www.w3.org/Graphics/SVG/1.1/DTD/svg11.dtd">
<svg version="1.1" id="Layer_1" xmlns="http://www.w3.org/2000/svg" xmlns:xlink="http://www.w3.org/1999/xlink" x="0px" y="0px"
	 viewBox="-777.1 467.6 69 69" enable-background="new -777.1 467.6 69 69" xml:space="preserve">
<path fill="none" stroke="#E2FFD2" stroke-width="1.1839" stroke-miterlimit="10" d="M-742.7,536c-18.7,0-33.9-15.2-33.9-33.9
	c0-18.7,15.2-33.9,33.9-33.9c18.7,0,33.9,15.2,33.9,33.9C-708.8,520.8-724,536-742.7,536z"/>
<g>
	<path fill="#DCFFC6" d="M-742.7,477.5c-13.6,0-24.6,11-24.6,24.6c0,13.6,11,24.6,24.6,24.6s24.6-11,24.6-24.6
		C-718,488.5-729.1,477.5-742.7,477.5z M-736.1,502h-4.3c0,6.8,0,15.2,0,15.2h-6.3c0,0,0-8.3,0-15.2h-3v-5.4h3v-3.5
		c0-2.5,1.2-6.4,6.4-6.4l4.7,0v5.2c0,0-2.8,0-3.4,0c-0.6,0-1.3,0.3-1.3,1.5v3.2h4.8L-736.1,502z"/>
	<g>
		<path fill="none" stroke="#E2FFD2" stroke-miterlimit="10" d="M-742.7,477.5c-13.6,0-24.6,11-24.6,24.6c0,13.6,11,24.6,24.6,24.6
			s24.6-11,24.6-24.6C-718,488.5-729.1,477.5-742.7,477.5z M-736.1,502h-4.3c0,6.8,0,15.2,0,15.2h-6.3c0,0,0-8.3,0-15.2h-3v-5.4h3
			v-3.5c0-2.5,1.2-6.4,6.4-6.4l4.7,0v5.2c0,0-2.8,0-3.4,0c-0.6,0-1.3,0.3-1.3,1.5v3.2h4.8L-736.1,502z"/>
	</g>
	<g opacity="0.3">
		<path fill="#B0CC9F" d="M-742.7,478.5c13,0,23.6,10.6,23.6,23.6c0,13-10.6,23.6-23.6,23.6s-23.6-10.6-23.6-23.6
			C-766.3,489.1-755.7,478.5-742.7,478.5 M-747.7,495.6h-2h-1v1v5.4v1h1h2v14.2v1h1h6.3h1v-1V503h3.3h0.9l0.1-0.9l0.6-5.4l0.1-1.1
			h-1.1h-3.8v-2.2c0-0.4,0.1-0.5,0.3-0.5h3.4h1v-1v-5.2v-1l-1,0l-4.7,0c-3.4,0-7.4,1.9-7.4,7.4V495.6 M-742.7,477.5
			c-13.6,0-24.6,11-24.6,24.6c0,13.6,11,24.6,24.6,24.6s24.6-11,24.6-24.6C-718,488.5-729.1,477.5-742.7,477.5L-742.7,477.5z
			 M-749.7,502v-5.4h3v-3.5c0-2.5,1.2-6.4,6.4-6.4l4.7,0v5.2c0,0-2.8,0-3.4,0c-0.6,0-1.3,0.3-1.3,1.5v3.2h4.8l-0.6,5.4h-4.3
			c0,6.8,0,15.2,0,15.2h-6.3c0,0,0-8.3,0-15.2H-749.7L-749.7,502z"/>
	</g>
</g>
</svg>
